<?xml version="1.0"?>
<svg xmlns="http://www.w3.org/2000/svg" xmlns:xlink="http://www.w3.org/1999/xlink" version="1.1" id="Capa_1" x="0px" y="0px" viewBox="0 0 495.804 495.804" style="enable-background:new 0 0 495.804 495.804;" xml:space="preserve" width="512px" height="512px" class=""><g><g>
	<circle style="fill:#D4E1F4;" cx="247.641" cy="95.086" r="47.02" data-original="#D4E1F4" class=""/>
	<path style="fill:#D4E1F4;" d="M196.441,185.992c6.269-2.09,13.061-3.657,20.376-3.657h62.171c7.314,0,14.106,1.045,20.375,3.657   c24.555,8.359,42.318,31.869,42.318,59.037v98.743H328.62h-20.376l-10.449,134.269h-99.265l-10.971-134.269h-20.898h-12.539   v-98.743C154.122,217.861,171.886,194.351,196.441,185.992z" data-original="#D4E1F4" class=""/>
</g><g>
	<circle style="fill:#104000" cx="109.192" cy="64.784" r="47.02" data-original="#4DCFE0" class="active-path" data-old_color="#4DCFE0"/>
	<circle style="fill:#104000" cx="386.09" cy="64.784" r="47.02" data-original="#4DCFE0" class="active-path" data-old_color="#4DCFE0"/>
	<path style="fill:#104000" d="M328.62,344.816v-1.045h13.061v-98.743c0-27.167-17.763-50.678-42.318-59.037v-0.522   c10.449-19.853,31.347-33.959,55.902-33.959h62.171c34.482,0,62.694,28.212,62.694,62.694v98.743h-33.959l-10.449,134.269h-99.265   L328.62,344.816z" data-original="#4DCFE0" class="active-path" data-old_color="#4DCFE0"/>
	<path style="fill:#104000" d="M140.539,152.033c24.555,0,45.453,14.106,55.902,33.959c-24.555,8.359-42.318,31.869-42.318,59.037   v98.743h12.539l-7.837,103.445H59.559L49.11,312.947H15.673v-98.22c0-34.482,28.212-62.694,62.694-62.694H140.539z" data-original="#4DCFE0" class="active-path" data-old_color="#4DCFE0"/>
</g><g>
	<path style="fill:#EB7D16" d="M247.641,157.78c-34.482,0-62.694-28.212-62.694-62.694s28.212-62.694,62.694-62.694   s62.694,28.212,62.694,62.694S282.122,157.78,247.641,157.78z M247.641,63.739c-17.241,0-31.347,14.106-31.347,31.347   s14.106,31.347,31.347,31.347s31.347-14.106,31.347-31.347S264.882,63.739,247.641,63.739z" data-original="#3A2C51" class="" data-old_color="#3A2C51"/>
	<path style="fill:#EB7D16" d="M386.09,127.478c-34.482,0-62.694-28.212-62.694-62.694S351.608,2.09,386.09,2.09   s62.694,28.212,62.694,62.694S420.571,127.478,386.09,127.478z M386.09,33.437c-17.241,0-31.347,14.106-31.347,31.347   s14.106,31.347,31.347,31.347c17.241,0,31.347-14.106,31.347-31.347S403.331,33.437,386.09,33.437z" data-original="#3A2C51" class="" data-old_color="#3A2C51"/>
	<path style="fill:#EB7D16" d="M417.437,135.837h-62.171c-25.078,0-48.588,12.016-63.216,31.869   c-4.18-0.522-8.359-1.045-13.061-1.045h-62.171c-4.18,0-8.882,0.522-13.061,1.567c-14.629-19.853-38.139-31.869-63.216-31.869   H78.367C35.004,136.359,0,171.363,0,214.726v98.22c0,8.882,6.792,15.673,15.673,15.673h18.808l9.404,119.641   c0.522,8.359,7.314,14.629,15.673,14.629h99.265c8.359,0,15.151-6.269,15.673-14.629l2.612-37.616l5.747,68.441   c0.522,8.359,7.314,14.629,15.673,14.629h99.265c8.359,0,15.151-6.269,15.673-14.629l4.702-63.216l2.612,32.392   c0.522,8.359,7.314,14.629,15.673,14.629h99.265c8.359,0,15.151-6.269,15.673-14.629L460.8,328.62h19.331   c8.882,0,15.673-6.792,15.673-15.673v-98.743C495.804,170.841,460.8,135.837,417.437,135.837z M74.188,431.543l-9.404-119.641   c-0.522-8.359-7.314-14.629-15.673-14.629H31.347v-82.547c0-26.122,20.898-47.02,47.02-47.02h62.171   c12.016,0,23.51,4.702,32.392,13.061c-20.898,14.106-34.482,38.139-34.482,64.261v98.743c0,7.314,4.702,13.061,11.494,15.151   l-5.747,72.62L74.188,431.543L74.188,431.543z M308.245,328.098c-8.359,0-15.151,6.269-15.673,14.629l-9.404,119.641h-70.008   l-9.927-119.641c-0.522-8.359-7.314-14.629-15.673-14.629h-17.763v-83.069c0-19.853,13.061-37.616,31.347-44.408   c5.747-2.09,10.971-2.612,15.673-2.612h62.171c5.747,0,10.449,1.045,14.106,2.612c0.522,0,0.522,0,1.045,0.522   c18.808,6.269,31.869,24.555,31.869,44.408v83.069h-17.763V328.098z M464.457,297.273h-18.286c-8.359,0-15.151,6.269-15.673,14.629   l-9.404,119.641h-70.008l-5.747-72.62c6.792-1.567,12.016-7.837,12.016-15.151v-98.743c0-26.645-13.584-50.678-34.482-64.784   c8.882-8.359,20.376-13.061,32.392-13.061h62.171c26.122,0,47.02,20.898,47.02,47.02V297.273z" data-original="#3A2C51" class="" data-old_color="#3A2C51"/>
	<path style="fill:#EB7D16" d="M109.192,127.478c-34.482,0-62.694-28.212-62.694-62.694S74.71,2.09,109.192,2.09   s62.694,28.212,62.694,62.694S143.673,127.478,109.192,127.478z M109.192,33.437c-17.241,0-31.347,14.106-31.347,31.347   s14.106,31.347,31.347,31.347s31.347-14.106,31.347-31.347S126.433,33.437,109.192,33.437z" data-original="#3A2C51" class="" data-old_color="#3A2C51"/>
</g></g> </svg>
