<?xml version="1.0"?>
<svg xmlns="http://www.w3.org/2000/svg" id="Layer_3" enable-background="new 0 0 64 64" height="512px" viewBox="0 0 64 64" width="512px" class=""><g><path d="m2 19h8c.553 0 1-.447 1-1v-3h17c.552 0 1 .448 1 1v6c0 .553.447 1 1 1h8c.553 0 1-.447 1-1v-6c0-6.065-4.935-11-11-11h-17v-3c0-.553-.447-1-1-1h-8c-.553 0-1 .447-1 1v16c0 .553.447 1 1 1zm29 2v-2h6v2zm6-5v1h-6v-1c0-1.654-1.346-3-3-3h-13v-6h13c4.963 0 9 4.037 9 9zm-24-9v6h-2v-6zm-10-4h6v14h-6z" data-original="#000000" class="active-path" data-old_color="#000000" fill="#104000"/><path d="m43 55h-12.165c.098-.321.165-.654.165-1 0-.912-.355-1.77-1-2.414l-11.293-11.293c-.187-.188-.441-.293-.707-.293h-7v-1c0-.553-.447-1-1-1h-8c-.553 0-1 .447-1 1v16c0 .553.447 1 1 1h8c.553 0 1-.447 1-1v-1h.643l10.725 8.774c.178.146.402.226.632.226h20c2.206 0 4-1.794 4-4s-1.794-4-4-4zm-34-1h-6v-14h6zm34 7h-19.643l-10.725-8.774c-.178-.146-.402-.226-.632-.226h-1v-10h6.586l11 11c.267.268.414.622.414 1s-.147.732-.414 1l-.586.586c-.535.533-1.465.533-2 0l-5.293-5.293-1.414 1.414 5.293 5.293c.645.645 1.502 1 2.414 1s1.77-.355 2.414-1h13.586c1.103 0 2 .897 2 2s-.897 2-2 2z" data-original="#000000" class="active-path" data-old_color="#000000" fill="#104000"/><path d="m29 25h2v19h-2z" data-original="#000000" class="active-path" data-old_color="#000000" fill="#104000"/><path d="m33 27h2v23h-2z" data-original="#000000" class="active-path" data-old_color="#000000" fill="#104000"/><path d="m37 25h2v19h-2z" data-original="#000000" class="active-path" data-old_color="#000000" fill="#104000"/><path d="m55 30c-2.206 0-4 1.794-4 4s1.794 4 4 4 4-1.794 4-4-1.794-4-4-4zm0 6c-1.103 0-2-.897-2-2s.897-2 2-2 2 .897 2 2-.897 2-2 2z" data-original="#000000" class="active-path" data-old_color="#000000" fill="#104000"/><path d="m48 25c2.757 0 5-2.243 5-5s-2.243-5-5-5-5 2.243-5 5 2.243 5 5 5zm0-8c1.654 0 3 1.346 3 3s-1.346 3-3 3-3-1.346-3-3 1.346-3 3-3z" data-original="#000000" class="active-path" data-old_color="#000000" fill="#104000"/><path d="m58 1c-2.757 0-5 2.243-5 5s2.243 5 5 5 5-2.243 5-5-2.243-5-5-5zm0 8c-1.654 0-3-1.346-3-3s1.346-3 3-3 3 1.346 3 3-1.346 3-3 3z" data-original="#000000" class="active-path" data-old_color="#000000" fill="#104000"/><path d="m52 42c-.462 0-.919.055-1.368.162-.739-1.864-2.563-3.162-4.632-3.162-2.757 0-5 2.243-5 5h2c0-1.654 1.346-3 3-3 1.48 0 2.75 1.113 2.954 2.589.043.312.23.587.507.739.277.15.607.165.896.035.532-.241 1.084-.363 1.643-.363 2.206 0 4 1.794 4 4 0 1.051-.408 2.045-1.149 2.8-.382.389-.382 1.012 0 1.4.741.755 1.149 1.749 1.149 2.8 0 2.206-1.794 4-4 4v2c3.309 0 6-2.691 6-6 0-1.271-.396-2.484-1.13-3.5.734-1.016 1.13-2.229 1.13-3.5 0-3.309-2.691-6-6-6z" data-original="#000000" class="active-path" data-old_color="#000000" fill="#104000"/><path d="m43.838 48h6.325v1.999h-6.325z" transform="matrix(.317 -.949 .949 .317 -14.357 78.074)" data-original="#000000" class="active-path" data-old_color="#000000" fill="#104000"/><path d="m47 53h6v2h-6z" data-original="#000000" class="active-path" data-old_color="#000000" fill="#104000"/></g> </svg>
