<?xml version="1.0"?>
<svg xmlns="http://www.w3.org/2000/svg" id="_x33_0" enable-background="new 0 0 64 64" height="512px" viewBox="0 0 64 64" width="512px" class=""><g><path d="m58 20 4-4-14-14-4 4 4.5 4.5-3.207 3.207-3.793-3.793-2.086 2.086 12.586 12.586 2.086-2.086-3.793-3.793 3.207-3.207z" data-original="#000000" class="active-path" data-old_color="#000000" fill="#104000"/><path d="m12.914 38.5 3.293 3.293-3.207 3.207 1.5 1.5-11.879 11.879c-.397.397-.621.937-.621 1.5 0 1.171.95 2.121 2.121 2.121.563 0 1.102-.224 1.5-.621l11.879-11.879 1.5 1.5 3.207-3.207 3.293 3.293 2.086-2.086-12.586-12.586z" data-original="#000000" class="active-path" data-old_color="#000000" fill="#104000"/><path d="m32.614 28.972c-.107-.089-.222-.165-.321-.264-.1-.1-.176-.215-.265-.322l-.614.614.586.586z" data-original="#000000" class="active-path" data-old_color="#000000" fill="#104000"/><path d="m16.414 35 12.586 12.586 11.086-11.086-1.086-1.086c-.535-.533-1.465-.533-2 0l-5.293 5.293c-.834.834-1.942 1.293-3.121 1.293h-.172c-1.179 0-2.287-.459-3.121-1.293s-1.293-1.942-1.293-3.121v-.172c0-1.179.459-2.287 1.293-3.121l4.293-4.293-1-1 2.51-2.51c-.061-.294-.096-.596-.096-.904v-.172c0-1.18.459-2.288 1.293-3.122l2-2c.834-.833 1.942-1.292 3.121-1.292h.172c1.179 0 2.287.459 3.121 1.292s1.293 1.942 1.293 3.122v.172c0 1.18-.459 2.288-1.293 3.122l-2 2c-.834.833-1.942 1.292-3.121 1.292h-.172c-.308 0-.61-.035-.904-.096l-2.51 2.51-1-1-4.293 4.293c-.456.456-.707 1.063-.707 1.707v.172c0 .645.251 1.251.707 1.707s1.063.707 1.707.707h.172c.645 0 1.251-.251 1.707-.707l5.293-5.293c1.289-1.289 3.539-1.289 4.828 0l1.086 1.086 9.086-9.086-12.586-12.586z" data-original="#000000" class="active-path" data-old_color="#000000" fill="#104000"/><path d="m33 25.414v.172c0 .645.251 1.251.707 1.707s1.063.707 1.707.707h.172c.139 0 .275-.017.41-.04-.022-1.622-1.334-2.934-2.956-2.956-.023.135-.04.271-.04.41z" data-original="#000000" class="active-path" data-old_color="#000000" fill="#104000"/><path d="m37.826 26.76 1.467-1.467c.456-.456.707-1.062.707-1.707v-.172c0-.645-.251-1.251-.707-1.707s-1.063-.707-1.707-.707h-.172c-.645 0-1.251.251-1.707.708l-1.467 1.467c1.757.452 3.133 1.828 3.586 3.585z" data-original="#000000" class="active-path" data-old_color="#000000" fill="#104000"/></g> </svg>
