<?xml version="1.0"?>
<svg xmlns="http://www.w3.org/2000/svg" id="Layer_1" enable-background="new 0 0 512 512" height="512px" viewBox="0 0 512 512" width="512px" class="hovered-paths"><g><path d="m511.675 225.369c0-8.837-7.163-16-16-16h-479.354c-8.836 0-16 7.163-16 16v269.432c0 8.837 7.164 16 16 16h479.354c8.837 0 16-7.163 16-16z" fill="#c8f29c" data-original="#C8F29C" class=""/><path d="m511.675 494.801v-166.522c-67.176.124-193.464 5.668-282.681 41.58-126.935 51.093-161.264-35.128-166.054-70.489-2.347-17.327-32.486-17.67-62.619-13.518v208.948c0 8.837 7.164 16 16 16h479.354c8.837.001 16-7.162 16-15.999z" fill="#9bd65e" data-original="#9BD65E" class="" style="fill:#0E3800" data-old_color="#9bd65e"/><path d="m509.548 488.026-155.518-270.561c-2.854-4.965-8.145-8.026-13.872-8.026h-168.318c-5.727 0-11.018 3.062-13.872 8.026l-155.518 270.561c-6.112 10.632 1.557 23.974 13.871 23.974h479.354c12.255 0 20.014-13.288 13.873-23.974z" fill="#aced70" data-original="#ACED70" class="" style="fill:#ACED70" data-old_color="#aced70"/><path d="m509.548 488.026-41.354-71.946c-76.589-18.768-204.039-35.339-350.168 4.872-35.356 9.729-64.063 15.366-87.319 17.915l-28.257 49.159c-6.112 10.632 1.557 23.974 13.871 23.974h479.354c12.255 0 20.014-13.288 13.873-23.974z" fill="#9bd65e" data-original="#9BD65E" class="" style="fill:#0E3800" data-old_color="#9bd65e"/><path d="m382.562 491.881-72.091-270.562c-1.867-7.006-8.211-11.881-15.461-11.881h-78.024c-7.25 0-13.594 4.875-15.46 11.881l-72.09 270.562c-2.705 10.15 4.958 20.119 15.46 20.119h222.205c10.504 0 18.164-9.971 15.461-20.119z" fill="#9bd65e" data-original="#9BD65E" class="" style="fill:#0E3800" data-old_color="#9bd65e"/><path d="m457.958 88.069-89.364-12.751-1.288-59.664c-.188-8.699-7.295-15.654-15.997-15.654h-90.945c-8.836 0-16 7.163-16 16v158.229c0 8.837 7.164 16 16 16h195.334c8.837 0 16-7.163 16-16v-70.32c0-7.964-5.857-14.715-13.74-15.84z" fill="#fdaa6a" data-original="#FDAA6A"/><path d="m144.897 512h222.205c10.504 0 18.164-9.971 15.461-20.119l-39.531-148.36c-40.745 12.652-92.659 17.392-123.617-23.159-10.943-14.334-23.442-23.602-36.484-29.251l-53.495 200.771c-2.704 10.149 4.958 20.118 15.461 20.118z" fill="#91c656" data-original="#91C656" class="" data-old_color="#91c656" style="fill:#0E3800"/><path d="m260.364 190.229h195.334c8.837 0 16-7.163 16-16v-51.029c-21.73 11.737-83.715 40.206-126.383 9.729-23.445-16.747-63.639-28.115-100.951-35.573v76.874c0 8.836 7.164 15.999 16 15.999z" fill="#f0a567" data-original="#F0A567"/><path d="m195.5 158.229h-179.179c-12.337 0-20.048 13.426-13.807 24.086l29.862 50.989c4.446 7.591 14.235 10.206 21.893 5.721 7.625-4.466 10.186-14.268 5.721-21.893l-15.756-26.903h21.644l25.227 43.075c4.446 7.591 14.235 10.206 21.893 5.721 7.625-4.466 10.186-14.268 5.721-21.893l-15.756-26.903h20.832l25.227 43.075c4.446 7.591 14.235 10.206 21.893 5.721 7.625-4.466 10.186-14.268 5.721-21.893l-15.756-26.903h34.62c8.836 0 16-7.163 16-16s-7.163-16-16-16z" fill="#c1c1c1" data-original="#C1C1C1" class="active-path" data-old_color="#c1c1c1" style="fill:#101010"/><path d="m260.364 79.491c-44.588 0-80.864 36.275-80.864 80.864 0 44.588 36.275 80.863 80.864 80.863 44.588 0 80.863-36.275 80.863-80.863s-36.275-80.864-80.863-80.864z" fill="#5b5b5b" data-original="#5B5B5B" class="" style="fill:#EB7D16" data-old_color="#5b5b5b"/><path d="m455.698 129.264c-30.866 0-55.978 25.111-55.978 55.978s25.111 55.978 55.978 55.978 55.978-25.111 55.978-55.978-25.112-55.978-55.978-55.978z" fill="#5b5b5b" data-original="#5B5B5B" class="" style="fill:#EB7D16" data-old_color="#5b5b5b"/><g fill="#4c4c4c"><path d="m337.071 185.893c-52.203 11.491-99.82 21.006-150.787 6.834 12.51 28.516 40.999 48.492 74.08 48.492 35.665 0 65.989-23.219 76.707-55.326z" data-original="#4C4C4C" class="" data-old_color="#4C4C4C" style="fill:#EB7D16"/><path d="m455.698 241.219c16.323 0 31.034-7.026 41.275-18.209-38.981-32.743-49.676-57.922-95.604-51.237-8.739 35.235 18 69.446 54.329 69.446z" data-original="#4C4C4C" class="" data-old_color="#4C4C4C" style="fill:#EB7D16"/></g></g> </svg>
