<?xml version="1.0"?>
<svg xmlns="http://www.w3.org/2000/svg" id="Flat" height="512px" viewBox="0 0 512 512" width="512px" class=""><g><path d="m144 200a8.00008 8.00008 0 0 1 -8-8v-80h-16v80a8 8 0 0 1 -16 0v-88a8.00008 8.00008 0 0 1 8-8h32a8.00008 8.00008 0 0 1 8 8v88a8.00008 8.00008 0 0 1 -8 8z" fill="#b3b3b3" data-original="#B3B3B3" class="" style="fill:#EB7D16" data-old_color="#b3b3b3"/><path d="m392 168v256a32.00409 32.00409 0 0 1 -32 32h-216a31.96854 31.96854 0 0 1 -32-32v-256l72-80v-48h144v48z" fill="#e6e6e6" data-original="#E6E6E6" class="active-path" style="fill:#104000" data-old_color="#e6e6e6"/><path d="m392 168v256a32.00409 32.00409 0 0 1 -32 32h-216a32.00016 32.00016 0 0 1 -26.28-13.72021l2.28-2.27979 96.63-16.66016a163.07156 163.07156 0 0 0 53.20008-302.28979l-85.83008-49.05005v-32h144v48z" fill="#ccc" data-original="#CCC" class="" data-old_color="#ccc" style="fill:#104000"/><rect fill="#b3b3b3" height="32" rx="16" width="296" x="104" y="456" data-original="#B3B3B3" class="" style="fill:#EB7D16" data-old_color="#b3b3b3"/><path d="m112 168h280v64h-280z" fill="#dc9265" data-original="#DC9265" class="" style="fill:#E3E9ED" data-old_color="#dc9265"/><path d="m392 168v64h-42.90991a163.00566 163.00566 0 0 0 -27.36009-64z" fill="#ad693d" data-original="#AD693D" class=""/><g fill="#b3b3b3"><path d="m248 64a8.00008 8.00008 0 0 0 -8-8h-56v16h56a8.00008 8.00008 0 0 0 8-8z" data-original="#B3B3B3" class="" style="fill:#EB7D16" data-old_color="#B3B3B3"/><path d="m280 56a8 8 0 0 0 0 16h48v-16z" data-original="#B3B3B3" class="" style="fill:#EB7D16" data-old_color="#B3B3B3"/><path d="m392 200a8.00008 8.00008 0 0 1 -8-8v-72h-32v72a8 8 0 0 1 -16 0v-80a8.00008 8.00008 0 0 1 8-8h48a8.00008 8.00008 0 0 1 8 8v80a8.00008 8.00008 0 0 1 -8 8z" data-original="#B3B3B3" class="" style="fill:#EB7D16" data-old_color="#B3B3B3"/></g><path d="m176 24h160v32h-160z" fill="#e6e6e6" data-original="#E6E6E6" class="active-path" style="fill:#104000" data-old_color="#e6e6e6"/><path d="m304 24a16 16 0 0 1 -16 16h-24a8 8 0 0 0 -8 8 8 8 0 0 0 8 8h72v-32z" fill="#ccc" data-original="#CCC" class="" data-old_color="#ccc" style="fill:#104000"/><path d="m176 40h48a8 8 0 0 1 8 8 8 8 0 0 1 -8 8h-48a0 0 0 0 1 0 0v-16a0 0 0 0 1 0 0z" fill="#ccc" data-original="#CCC" class="" data-old_color="#ccc" style="fill:#104000"/></g> </svg>
