<?xml version="1.0"?>
<svg xmlns="http://www.w3.org/2000/svg" id="Outline" viewBox="0 0 64 64" width="512px" height="512px" class=""><g><g><path d="M37,29a1,1,0,0,0-1.868-.5L32,33.984,28.868,28.5A1,1,0,0,0,27,29v7a1,1,0,0,0,2,0V32.766l2.132,3.73a1.04,1.04,0,0,0,1.736,0L35,32.766V36a1,1,0,0,0,2,0Z" data-original="#000000" class="active-path" data-old_color="#000000" fill="#EB7D16"/><path d="M37,41a1,1,0,0,0-1-1H28a1,1,0,0,0,0,2h8A1,1,0,0,0,37,41Z" data-original="#000000" class="active-path" data-old_color="#000000" fill="#EB7D16"/><path d="M35,45a1,1,0,0,0-1-1H30a1,1,0,0,0,0,2h4A1,1,0,0,0,35,45Z" data-original="#000000" class="active-path" data-old_color="#000000" fill="#EB7D16"/><path d="M31,48a1,1,0,0,0,0,2h2a1,1,0,0,0,0-2Z" data-original="#000000" class="active-path" data-old_color="#000000" fill="#EB7D16"/><path d="M47,33a1,1,0,0,0-1,1V60H18V51a1,1,0,0,0-2,0V61a1,1,0,0,0,1,1H47a1,1,0,0,0,1-1V34A1,1,0,0,0,47,33Z" data-original="#000000" class="active-path" data-old_color="#000000" fill="#EB7D16"/><path d="M47.65,18.241l-5.137-4.4A.984.984,0,0,0,43,13V9a1,1,0,0,0-1-1h-.5V3a1,1,0,0,0-1-1h-17a1,1,0,0,0-1,1V8H22a1,1,0,0,0,0,2H41v2H22a1,1,0,0,0-1,1,.984.984,0,0,0,.487.838l-5.137,4.4A1,1,0,0,0,16,19V47a1,1,0,0,0,2,0V19.46L24.37,14H39.63L46,19.46V30a1,1,0,0,0,2,0V19A1,1,0,0,0,47.65,18.241ZM24.5,8V4h15V8Z" data-original="#000000" class="active-path" data-old_color="#000000" fill="#EB7D16"/><path d="M26,21H22a1,1,0,0,0-1,1V56a1,1,0,0,0,1,1H42a1,1,0,0,0,1-1V22a1,1,0,0,0-1-1H30a1,1,0,0,0,0,2H41V55H23V23h3a1,1,0,0,0,0-2Z" data-original="#000000" class="active-path" data-old_color="#000000" fill="#EB7D16"/></g></g> </svg>
