<?xml version="1.0"?>
<svg xmlns="http://www.w3.org/2000/svg" height="512px" viewBox="0 -100 511.998 511" width="512px"><g><path d="m499.566406.5h-293.800781c-6.859375 0-12.4375 5.578125-12.4375 12.433594v62.609375h-76.230469c-6.164062 0-11.808594 3.109375-15.105468 8.316406l-37.925782 59.917969-44.101562 13.121094c-11.753906 3.496093-19.964844 14.503906-19.964844 26.765624v50.726563c0 9.859375 8.019531 17.875 17.875 17.875h26.484375c0 .050781-.003906.097656-.003906.148437 0 27.425782 22.3125 49.738282 49.738281 49.738282 27.429688 0 49.742188-22.3125 49.742188-49.738282 0-.050781-.003907-.097656-.003907-.148437h16.457031v34.46875c0 8.214844 6.460938 14.929687 14.566407 15.375v2.796875c0 4.121094 3.339843 7.460938 7.460937 7.460938s7.460938-3.339844 7.460938-7.460938v-2.753906h44.988281v2.753906c0 4.121094 3.339844 7.460938 7.460937 7.460938 4.121094 0 7.460938-3.339844 7.460938-7.460938v-2.773438c8.289062-.246093 14.960938-7.050781 14.960938-15.398437v-92.203125c0-8.5-6.917969-15.417969-15.417969-15.417969h-40.980469v-62.058593c0-4.121094-3.339844-7.460938-7.460938-7.460938-4.121093 0-7.460937 3.339844-7.460937 7.460938v62.058593h-17.617187c-8.503907 0-15.421876 6.917969-15.421876 15.417969v42.8125h-18.792968c-6.398438-20.082031-25.226563-34.671875-47.402344-34.671875s-41 14.589844-47.398438 34.671875h-28.820312c-1.628906 0-2.953125-1.324219-2.953125-2.953125v-15.75h10.871094c5.710937 0 10.355469-4.648437 10.355469-10.359375v-13.429688c0-5.710937-4.644532-10.355468-10.355469-10.355468h-10.871094v-.832032c0-5.707031 3.824219-10.835937 9.296875-12.464843l46.78125-13.917969c1.730469-.515625 3.214844-1.636719 4.175781-3.160156l39.425781-62.28125c.542969-.859375 1.476563-1.375 2.496094-1.375h81.902344c5.042969 1.246094 10.007812-3.714844 9.253906-8.605469v-66.4375h2.476563v45.449219c0 14.441406 11.75 26.191406 26.191406 26.191406h.851563c.820312 0 1.628906-.042969 2.429687-.117188v47.683594h-5.292969c-6.929687 0-12.566406 5.640625-12.566406 12.566406v11.601563c0 6.933594 5.636719 12.570313 12.566406 12.570313h153c4.121094 0 7.460938-3.339844 7.460938-7.460938s-3.339844-7.460938-7.460938-7.460938h-150.648437v-6.894531h230.730469v6.894531h-46.753907c-4.121093 0-7.460937 3.339844-7.460937 7.460938s3.339844 7.460938 7.460937 7.460938h49.109375c6.929688 0 12.566406-5.640626 12.566406-12.570313v-11.601563c0-6.929687-5.636718-12.566406-12.566406-12.566406h-6.003906v-47.683594c.800781.074219 1.609375.117188 2.429688.117188h.851562c14.441406 0 26.191406-11.746094 26.191406-26.191406v-45.449219h3.257813v222.066406h-57.28125c-6.355469-20.15625-25.21875-34.8125-47.449219-34.8125-22.226562 0-41.09375 14.65625-47.449219 34.8125h-53.480469c-4.121093 0-7.460937 3.339844-7.460937 7.460938 0 4.121093 3.339844 7.460937 7.460937 7.460937h51.191407v.003906c0 27.425782 22.3125 49.738282 49.738281 49.738282 27.429688 0 49.742188-22.3125 49.742188-49.738282v-.003906h57.476562c6.859375 0 12.433594-5.578125 12.433594-12.433594v-227.042968c.003906-6.855469-5.574219-12.433594-12.429688-12.433594zm-324.351562 194.03125c0-.273438.222656-.496094.496094-.496094h73.519531c.277343 0 .5.222656.5.496094v92.203125c0 .273437-.222657.496094-.5.496094h-73.519531c-.273438 0-.496094-.222657-.496094-.496094zm-81.117188 23.0625c19.199219 0 34.816406 15.621094 34.816406 34.820312 0 19.195313-15.621093 34.816407-34.816406 34.816407-19.199218 0-34.820312-15.621094-34.820312-34.816407 0-19.199218 15.621094-34.820312 34.820312-34.820312zm-72.871094-18.175781v4.300781h-6.304687v-4.300781zm419.359376-138.546875c0 6.214844-5.054688 11.269531-11.269532 11.269531h-.851562c-6.210938 0-11.265625-5.054687-11.265625-11.269531v-45.449219h23.386719zm-38.308594 0c0 6.214844-5.054688 11.269531-11.269532 11.269531h-.851562c-6.214844 0-11.265625-5.054687-11.265625-11.269531v-45.449219h23.386719zm-38.308594 0c0 6.214844-5.058594 11.269531-11.269531 11.269531h-.851563c-6.214844 0-11.269531-5.054687-11.269531-11.269531v-45.449219h23.386719v45.449219zm-38.3125 0c0 6.214844-5.054688 11.269531-11.265625 11.269531h-.851563c-6.214843 0-11.269531-5.054687-11.269531-11.269531v-45.449219h23.386719zm-38.308594 0c0 6.214844-5.054687 11.269531-11.265625 11.269531h-.851562c-6.214844 0-11.265625-5.054687-11.265625-11.269531v-45.449219h23.386718v45.449219zm-50.425781 11.269531c-6.214844 0-11.269531-5.054687-11.269531-11.269531v-45.449219h23.386718v45.449219c0 6.214844-5.054687 11.269531-11.269531 11.269531zm212.503906 62.488281h-194.304687v-54.160156c.476562-.421875.9375-.859375 1.378906-1.316406 4.761719 4.875 11.394531 7.910156 18.730469 7.910156h.851562c7.332031 0 13.96875-3.035156 18.726563-7.910156 4.757812 4.875 11.394531 7.910156 18.730468 7.910156h.851563c7.332031 0 13.96875-3.035156 18.726563-7.910156 4.761718 4.875 11.398437 7.910156 18.730468 7.910156h.851563c7.335937 0 13.972656-3.035156 18.730469-7.910156 4.757812 4.875 11.394531 7.910156 18.726562 7.910156h.851562c7.335938 0 13.972657-3.035156 18.730469-7.910156 4.757813 4.875 11.394531 7.910156 18.730469 7.910156h.851562c7.332032 0 13.96875-3.035156 18.726563-7.910156.445313.457031.902344.894531 1.378906 1.316406zm29.46875-73.757812c0 6.214844-5.054687 11.269531-11.265625 11.269531h-.855468c-6.210938 0-11.265626-5.054687-11.265626-11.269531v-45.449219h23.386719zm-86.546875 226.359375c-19.199218 0-34.820312-15.617188-34.820312-34.816407 0-19.199218 15.621094-34.816406 34.820312-34.816406 19.199219 0 34.816406 15.617188 34.816406 34.816406 0 19.199219-15.617187 34.816407-34.816406 34.816407zm0 0" data-original="#000000" class="active-path" data-old_color="#000000" fill="#0D3400"/><path d="m131.300781 99.59375c-5.953125 0-11.390625 3.015625-14.542969 8.0625l-22.796874 36.472656c-2.28125 3.652344-2.402344 8.261719-.316407 12.027344 2.089844 3.769531 6.0625 6.113281 10.371094 6.113281h65.933594c6.535156 0 11.855469-5.320312 11.855469-11.859375v-38.960937c0-6.535157-5.320313-11.855469-11.855469-11.855469zm35.582031 47.753906h-57.335937l19.863281-31.785156c.410156-.652344 1.117188-1.042969 1.890625-1.042969h35.582031zm0 0" data-original="#000000" class="active-path" data-old_color="#000000" fill="#0D3400"/><path d="m194.585938 222.835938h35.214843c4.121094 0 7.460938-3.339844 7.460938-7.460938s-3.339844-7.460938-7.460938-7.460938h-35.214843c-4.121094 0-7.460938 3.339844-7.460938 7.460938s3.339844 7.460938 7.460938 7.460938zm0 0" data-original="#000000" class="active-path" data-old_color="#000000" fill="#0D3400"/><path d="m194.585938 248.933594h35.214843c4.121094 0 7.460938-3.339844 7.460938-7.460938s-3.339844-7.460937-7.460938-7.460937h-35.214843c-4.121094 0-7.460938 3.339843-7.460938 7.460937s3.339844 7.460938 7.460938 7.460938zm0 0" data-original="#000000" class="active-path" data-old_color="#000000" fill="#0D3400"/><path d="m103.863281 252.414062c0 5.394532-4.375 9.765626-9.765625 9.765626-5.394531 0-9.769531-4.371094-9.769531-9.765626 0-5.394531 4.375-9.769531 9.769531-9.769531 5.390625 0 9.765625 4.375 9.765625 9.769531zm0 0" data-original="#000000" class="active-path" data-old_color="#000000" fill="#0D3400"/><path d="m402.113281 252.414062c0 5.394532-4.371093 9.765626-9.765625 9.765626-5.394531 0-9.769531-4.371094-9.769531-9.765626 0-5.394531 4.375-9.769531 9.769531-9.769531 5.394532 0 9.765625 4.375 9.765625 9.769531zm0 0" data-original="#000000" class="active-path" data-old_color="#000000" fill="#0D3400"/></g> </svg>
