<?xml version="1.0" encoding="utf-8"?>
<!-- Generator: Adobe Illustrator 23.1.1, SVG Export Plug-In . SVG Version: 6.00 Build 0)  -->
<svg version="1.1" id="Outline" xmlns="http://www.w3.org/2000/svg" xmlns:xlink="http://www.w3.org/1999/xlink" x="0px" y="0px"
	 viewBox="0 0 512 512" style="enable-background:new 0 0 512 512;" xml:space="preserve">
<style type="text/css">
	.st0{fill:#B2000D;}
</style>
<g>
	<g>
		<path class="st0" d="M296,232c0-4.4-3.6-8-8-8c-2.9,0-5.5,1.5-7,4L256,271.9L230.9,228c-2.2-3.8-7.1-5.2-10.9-3
			c-2.5,1.4-4,4.1-4,7v56c0,4.4,3.6,8,8,8s8-3.6,8-8v-25.9l17.1,29.8c2.5,3.8,7.7,4.9,11.5,2.4c0.9-0.6,1.7-1.4,2.4-2.4l17.1-29.8
			V288c0,4.4,3.6,8,8,8s8-3.6,8-8V232z"/>
		<path class="st0" d="M296,328c0-4.4-3.6-8-8-8h-64c-4.4,0-8,3.6-8,8s3.6,8,8,8h64C292.4,336,296,332.4,296,328z"/>
		<path class="st0" d="M280,360c0-4.4-3.6-8-8-8h-32c-4.4,0-8,3.6-8,8s3.6,8,8,8h32C276.4,368,280,364.4,280,360z"/>
		<path class="st0" d="M248,384c-4.4,0-8,3.6-8,8s3.6,8,8,8h16c4.4,0,8-3.6,8-8s-3.6-8-8-8H248z"/>
		<path class="st0" d="M376,264c-4.4,0-8,3.6-8,8v208H144v-72c0-4.4-3.6-8-8-8s-8,3.6-8,8v80c0,4.4,3.6,8,8,8h240c4.4,0,8-3.6,8-8
			V272C384,267.6,380.4,264,376,264z"/>
		<path class="st0" d="M381.2,145.9l-41.1-35.2c2.4-1.4,3.9-4,3.9-6.7V72c0-4.4-3.6-8-8-8h-4V24c0-4.4-3.6-8-8-8H188
			c-4.4,0-8,3.6-8,8v40h-4c-4.4,0-8,3.6-8,8s3.6,8,8,8h152v16H176c-4.4,0-8,3.6-8,8c0,2.8,1.5,5.3,3.9,6.7l-41.1,35.2
			c-1.8,1.5-2.8,3.8-2.8,6.1v224c0,4.4,3.6,8,8,8s8-3.6,8-8V155.7l51-43.7H317l51,43.7V240c0,4.4,3.6,8,8,8s8-3.6,8-8v-88
			C384,149.7,383,147.4,381.2,145.9z M196,64V32h120v32H196z"/>
		<path class="st0" d="M208,168h-32c-4.4,0-8,3.6-8,8v272c0,4.4,3.6,8,8,8h160c4.4,0,8-3.6,8-8V176c0-4.4-3.6-8-8-8h-96
			c-4.4,0-8,3.6-8,8s3.6,8,8,8h88v256H184V184h24c4.4,0,8-3.6,8-8S212.4,168,208,168z"/>
	</g>
</g>
</svg>
