<?xml version="1.0"?>
<svg xmlns="http://www.w3.org/2000/svg" height="512px" viewBox="0 0 58 60" width="512px" class=""><g><g id="Page-1" fill="none" fill-rule="evenodd"><g id="039---Plant-Stall" fill="rgb(0,0,0)" fill-rule="nonzero" transform="translate(0 -1)"><path id="Shape" d="m12 30h11c0 2.209139-1.790861 4-4 4h-3c-2.209139 0-4-1.790861-4-4z" data-original="#000000" class="active-path" data-old_color="#000000" fill="#104000"/><path id="Shape" d="m23 30h12c0 2.209139-1.790861 4-4 4h-4c-2.209139 0-4-1.790861-4-4z" data-original="#000000" class="active-path" data-old_color="#000000" fill="#104000"/><path id="Shape" d="m35 30h11c0 2.209139-1.790861 4-4 4h-3c-2.209139 0-4-1.790861-4-4z" data-original="#000000" class="active-path" data-old_color="#000000" fill="#104000"/><path id="Shape" d="m23 26c-.5522847 0-1 .4477153-1 1v1h-8.52l1.45-3.63c.2043453-.5136248-.0463752-1.0956546-.56-1.3-.5136248-.2043453-1.0956546.0463752-1.3.56l-1.75 4.37h-6.32c-.55228475 0-1 .4477153-1 1s.44771525 1 1 1h7c0 2.209139-1.790861 4-4 4h-3c-.33773721.0030533-.67426925-.0406959-1-.13-.69049806-.1805544-1.32151823-.539167-1.83-1.04-.74763915-.7523311-1.16810582-1.7693573-1.17-2.83.00173641-.6521511.18903129-1.290341.54-1.84l4.99-7.84c.91170016-1.4451093 2.50133481-2.3211075 4.21-2.32h7.7l.4 4.36c.1772865 2.0681717 1.9142831 3.6528002 3.99 3.64z" data-original="#000000" class="active-path" data-old_color="#000000" fill="#104000"/><path id="Shape" d="m23 26h12c-.5522847 0-1 .4477153-1 1v1h-10v-1c0-.5522847-.4477153-1-1-1z" data-original="#000000" class="active-path" data-old_color="#000000" fill="#104000"/><path id="Shape" d="m57 30c-.0018942 1.0606427-.4223608 2.0776689-1.17 2.83-.5084818.500833-1.1395019.8594456-1.83 1.04-.3257307.0893041-.6622628.1330533-1 .13h-3c-2.209139 0-4-1.790861-4-4h7c.5522847 0 1-.4477153 1-1s-.4477153-1-1-1h-6.32l-1.75-4.37c-.2043454-.5136248-.7863752-.7643454-1.3-.56s-.7643454.7863752-.56 1.3l1.45 3.63h-8.52v-1c0-.5522847-.4477153-1-1-1h.17c2.0757169.0128002 3.8127135-1.5718283 3.99-3.64l.4-4.36h7.44c1.7945416-.0675909 3.4923777.8136127 4.47 2.32l4.99 7.84c.3509687.549659.5382636 1.1878489.54 1.84z" data-original="#000000" class="active-path" data-old_color="#000000" fill="#104000"/><path id="Shape" d="m8 36v12.5c0 .2761424-.22385763.5-.5.5h-3c-.27614237 0-.5-.2238576-.5-.5v-12.58c.33074126.0526686.66509192.0794167 1 .08z" data-original="#000000" class="active-path" data-old_color="#000000" fill="#104000"/><path id="Shape" d="m54 35.92v12.58c0 .2761424-.2238576.5-.5.5h-3c-.2761424 0-.5-.2238576-.5-.5v-12.5h3c.334941.0002364.6693565-.0265169 1-.08z" data-original="#000000" class="active-path" data-old_color="#000000" fill="#104000"/><rect id="Rectangle-path" height="4" rx="2" width="58" y="51" data-original="#000000" class="active-path" data-old_color="#000000" fill="#104000"/><path id="Shape" d="m2 57h54v2c0 1.1045695-.8954305 2-2 2h-50c-1.1045695 0-2-.8954305-2-2z" data-original="#000000" class="active-path" data-old_color="#000000" fill="#104000"/><rect id="Rectangle-path" height="4" rx="1" width="22" x="18" y="9.002" data-original="#000000" class="active-path" data-old_color="#000000" fill="#104000"/><path id="Shape" d="m37.82 15-.65 7.18c-.0974905 1.031692-.963712 1.8199536-2 1.82h-12.34c-1.036288-.0000464-1.9025095-.788308-2-1.82l-.65-7.18z" data-original="#000000" class="active-path" data-old_color="#000000" fill="#104000"/><path id="Shape" d="m27.73 3.01c-.2001114.29603878-.3772945.60694496-.53.93-.6859855 1.46474928-1.0897014 3.04568689-1.19 4.66-.9211569-.25882241-1.7744716-.71619911-2.5-1.34-2.48-2.19-2.51-6.22-2.51-6.22s4-.47 6.48 1.72c.0906652.07566393.1743361.15933482.25.25z" data-original="#000000" class="active-path" data-old_color="#000000" fill="#104000"/><path id="Shape" d="m37 1.05s-.03 4.02-2.52 6.22-6.48 1.72-6.48 1.72v-.01c.0548991-1.44236936.394764-2.85960594 1-4.17.3631648-.77335084.8764459-1.46679024 1.51-2.04 2.49-2.2 6.49-1.72 6.49-1.72z" data-original="#000000" class="active-path" data-old_color="#000000" fill="#104000"/><path id="Shape" d="m23 51h-6l-1-8h8z" data-original="#000000" class="active-path" data-old_color="#000000" fill="#104000"/><path id="Shape" d="m25 44h-10c-.5522847 0-1-.4477153-1-1s.4477153-1 1-1h10c.5522847 0 1 .4477153 1 1s-.4477153 1-1 1z" data-original="#000000" class="active-path" data-old_color="#000000" fill="#104000"/><path id="Shape" d="m41 51h-6l-1-8h8z" data-original="#000000" class="active-path" data-old_color="#000000" fill="#104000"/><path id="Shape" d="m43 44h-10c-.5522847 0-1-.4477153-1-1s.4477153-1 1-1h10c.5522847 0 1 .4477153 1 1s-.4477153 1-1 1z" data-original="#000000" class="active-path" data-old_color="#000000" fill="#104000"/><path id="Shape" d="m20.553 36.106c-.4650375.2283498-.8888274.5325052-1.254.9-.1772797-.2539381-.3752901-.4927547-.592-.714-.3923789-.3789722-1.0160848-.3735524-1.4018186.0121814s-.3911536 1.0094397-.0121814 1.4018186c1.678 1.679 1.707 5.259 1.707 5.294 0 .5522847.4477153 1 1 1s1-.4477153 1-1c-.0311728-1.3625495-.2671466-2.7126569-.7-4.005.2514814-.4810277.6526872-.8671399 1.143-1.1.3224865-.158024.5354742-.4768371.5580026-.8352525.0225283-.3584153-.1488625-.7013887-.4490237-.8985495-.3001611-.1971608-.6829949-.2182297-1.0029789-.055198z" data-original="#000000" class="active-path" data-old_color="#000000" fill="#104000"/><path id="Shape" d="m39.9 36.553c-.1186456-.2372731-.3267092-.4176795-.578398-.5015133-.2516887-.0838337-.5263747-.064224-.763602.0545133-.4650375.2283498-.8888274.5325052-1.254.9-.1772797-.2539381-.3752901-.4927547-.592-.714-.3923789-.3789722-1.0160848-.3735524-1.4018186.0121814s-.3911536 1.0094397-.0121814 1.4018186c1.673 1.679 1.702 5.259 1.702 5.294 0 .5522847.4477153 1 1 1s1-.4477153 1-1c-.0311728-1.3625495-.2671466-2.7126569-.7-4.005.2514814-.4810277.6526872-.8671399 1.143-1.1.2390294-.1168607.4216334-.3241602.5074021-.5760237.0857687-.2518634.06763-.5275231-.0504021-.7659763z" data-original="#000000" class="active-path" data-old_color="#000000" fill="#104000"/></g></g></g> </svg>
