<?xml version="1.0"?>
<svg xmlns="http://www.w3.org/2000/svg" viewBox="0 0 512 512" width="512px" height="512px"><g><g id="Glass_House" data-name="Glass House"><g id="Outline"><path d="M104,400a8,8,0,0,0-8,8v32a8,8,0,0,0,16,0V408A8,8,0,0,0,104,400Z" data-original="#000000" class="active-path" data-old_color="#000000" fill="#104000"/><path d="M475.839,210.772a8,8,0,1,0-10.918,11.7L483.7,240h-136.7L237.291,144H313.12a8,8,0,0,0,0-16c-190.06.061-179.029-.962-182.388,1.979l-32,28A8.009,8.009,0,0,0,104,172c5.285,0,5.146-2.759,32-25.37L242.708,240H29.291l29.69-25.979a8,8,0,0,0-10.535-12.042C1.234,243.3,0,242.982,0,248V488a8,8,0,0,0,8,8H504a8,8,0,0,0,8-8V248C512,243.077,511.75,244.336,475.839,210.772ZM64,480H16V448H64Zm0-48H16V400H64ZM16,384V352H82.392a71.87,71.87,0,0,0-16.578,32Zm176,96H80V400a56,56,0,0,1,112,0Zm64,0H208V448h48Zm0-48H208V400h48Zm0-48H206.186a71.87,71.87,0,0,0-16.578-32H256Zm0-48H168.921a71.715,71.715,0,0,0-65.842,0H16V303.667H256Zm0-48.333H16V256H256ZM157.291,144H213l109.713,96h-55.7ZM336,480H272V256h64Zm80,0H352V256h64Zm80,0H432V256h64Z" data-original="#000000" class="active-path" data-old_color="#000000" fill="#104000"/><path d="M301.657,349.657l16-16a8,8,0,0,0-11.314-11.314l-16,16a8,8,0,0,0,11.314,11.314Z" data-original="#000000" class="active-path" data-old_color="#000000" fill="#104000"/><path d="M301.657,389.657l16-16a8,8,0,0,0-11.314-11.314l-16,16a8,8,0,0,0,11.314,11.314Z" data-original="#000000" class="active-path" data-old_color="#000000" fill="#104000"/><path d="M381.657,349.657l16-16a8,8,0,0,0-11.314-11.314l-16,16a8,8,0,0,0,11.314,11.314Z" data-original="#000000" class="active-path" data-old_color="#000000" fill="#104000"/><path d="M381.657,389.657l16-16a8,8,0,0,0-11.314-11.314l-16,16a8,8,0,0,0,11.314,11.314Z" data-original="#000000" class="active-path" data-old_color="#000000" fill="#104000"/><path d="M456,352c5.675,0,7.011-4.642,21.657-18.343a8,8,0,0,0-11.314-11.314l-16,16A8.009,8.009,0,0,0,456,352Z" data-original="#000000" class="active-path" data-old_color="#000000" fill="#104000"/><path d="M456,392c5.675,0,7.011-4.642,21.657-18.343a8,8,0,0,0-11.314-11.314l-16,16A8.009,8.009,0,0,0,456,392Z" data-original="#000000" class="active-path" data-old_color="#000000" fill="#104000"/><path d="M372.852,191.834l-18.509,18.509A8.009,8.009,0,0,0,360,224c5.693,0,6.27-3.979,24.05-20.736,28.172,20.53,63.688,4.91,88.633-20.034,33.355-33.356,39.069-106.821,39.3-109.932a8,8,0,0,0-8.561-8.561c-3.111.227-76.575,5.942-109.933,39.3C359.521,138,358.445,171.151,372.852,191.834ZM494.973,81.743c-2.626,20.307-10.977,67.546-33.605,90.174-23.162,23.162-48.577,30.5-65.807,19.835l66.1-66.1a8,8,0,0,0-11.314-11.314l-65.926,65.926c-9.875-17.209-2.384-42.155,20.383-64.921C427.428,92.721,474.668,84.37,494.973,81.743Z" data-original="#000000" class="active-path" data-old_color="#000000" fill="#104000"/><path d="M345.134,142.87c22.25,0-19.172-34.552,72.757-106.678,2.448,5.2,5.69,12.5,8.922,21a8,8,0,1,0,14.955-5.686,289.928,289.928,0,0,0-13.941-31.294,8,8,0,0,0-11.638-2.764c-2.63,1.843-64.548,45.682-75.633,92.394a123.687,123.687,0,0,0-3.423,24.793A8,8,0,0,0,345.134,142.87Z" data-original="#000000" class="active-path" data-old_color="#000000" fill="#104000"/><circle cx="80" cy="184" r="8" data-original="#000000" class="active-path" data-old_color="#000000" fill="#104000"/></g></g></g> </svg>
