<?xml version="1.0"?>
<svg xmlns="http://www.w3.org/2000/svg" height="512px" viewBox="0 0 60 60" width="512px"><g><g id="Page-1" fill="none" fill-rule="evenodd"><g id="016---Scan" fill="rgb(0,0,0)" fill-rule="nonzero" transform="translate(-1)"><path id="Shape" d="m58 0h-54c-1.70524172.05441563-3.04599736 1.47651044-3 3.182v43.636c-.04599736 1.7054896 1.29475828 3.1275844 3 3.182h17.382l-2 4h-3.382c-1.6568542 0-3 1.3431458-3 3s1.3431458 3 3 3h30c1.6568542 0 3-1.3431458 3-3s-1.3431458-3-3-3h-3.382l-2-4h17.382c1.7052417-.0544156 3.0459974-1.4765104 3-3.182v-43.636c.0459974-1.70548956-1.2947583-3.12758437-3-3.182zm-11 57c0 .5522847-.4477153 1-1 1h-30c-.5522847 0-1-.4477153-1-1s.4477153-1 1-1h30c.5522847 0 1 .4477153 1 1zm-6.618-3h-18.764l2-4h14.764zm17.618-6h-54c-.59661794-.0616152-1.03807599-.5834187-1-1.182v-2.818h4c.55228475 0 1-.4477153 1-1s-.44771525-1-1-1h-4v-38.818c-.03807599-.59858134.40338206-1.12038476 1-1.182h54c.5966179.06161524 1.038076.58341866 1 1.182v38.818h-48c-.5522847 0-1 .4477153-1 1s.4477153 1 1 1h48v2.818c.038076.5985813-.4033821 1.1203848-1 1.182z" data-original="#000000" class="active-path" data-old_color="#000000" fill="#EB7D16"/><path id="Shape" d="m6 10c.55228475 0 1-.44771525 1-1v-3h3c.5522847 0 1-.44771525 1-1s-.4477153-1-1-1h-4c-.55228475 0-1 .44771525-1 1v4c0 .55228475.44771525 1 1 1z" data-original="#000000" class="active-path" data-old_color="#000000" fill="#EB7D16"/><path id="Shape" d="m11 39c0-.5522847-.4477153-1-1-1h-3v-3c0-.5522847-.44771525-1-1-1s-1 .4477153-1 1v4c0 .5522847.44771525 1 1 1h4c.5522847 0 1-.4477153 1-1z" data-original="#000000" class="active-path" data-old_color="#000000" fill="#EB7D16"/><path id="Shape" d="m56 34c-.5522847 0-1 .4477153-1 1v3h-3c-.5522847 0-1 .4477153-1 1s.4477153 1 1 1h4c.5522847 0 1-.4477153 1-1v-4c0-.5522847-.4477153-1-1-1z" data-original="#000000" class="active-path" data-old_color="#000000" fill="#EB7D16"/><path id="Shape" d="m52 6h3v3c0 .55228475.4477153 1 1 1s1-.44771525 1-1v-4c0-.55228475-.4477153-1-1-1h-4c-.5522847 0-1 .44771525-1 1s.4477153 1 1 1z" data-original="#000000" class="active-path" data-old_color="#000000" fill="#EB7D16"/><path id="Shape" d="m9.007 26.045c.04273102.5403634.30469157 1.0397144.725 1.382 12.3809624 10.0973361 30.1550376 10.0973361 42.536 0 .4203084-.3422856.682269-.8416366.725-1.382.0449749-.5478829-.1327439-1.0907724-.493-1.506l-12.068-13.839c-.686962-.79045063-1.8657323-.92098998-2.709-.3-1.8986522 1.5746721-4.2588966 2.4874544-6.723 2.6-2.4653133-.1149594-4.8259312-1.030559-6.724-2.608-.8429496-.62086256-2.0213844-.49031217-2.708.3l-12.068 13.847c-.36055807.4150565-.53831963.9580765-.493 1.506zm14.069-14.053c5.32 3.992 10.528 3.972 15.848.019l12.068 13.843.01.024c-5.6504448 4.6026362-12.7142178 7.1177942-20.002 7.122-7.289634.0002726-14.3542361-2.5249198-19.992-7.146z" data-original="#000000" class="active-path" data-old_color="#000000" fill="#EB7D16"/></g></g></g> </svg>
