<?xml version="1.0"?>
<svg xmlns="http://www.w3.org/2000/svg" id="Filled" viewBox="0 0 512 512" width="512px" height="512px" class=""><g><circle cx="256" cy="256" r="232" style="fill:#EB7D16" data-original="#FFD754" class="" data-old_color="#FFD754"/><circle cx="256" cy="256" r="184" style="fill:#104000" data-original="#EDB90C" class="active-path" data-old_color="#EDB90C"/><path d="M74.782,232a8,8,0,0,1-7.889-9.383A192.259,192.259,0,0,1,222.618,66.893a8,8,0,1,1,2.764,15.76A176.212,176.212,0,0,0,82.653,225.382,8,8,0,0,1,74.782,232Z" data-original="#000000" class=""/><path d="M287.99,445.229a8,8,0,0,1-1.372-15.882,176.214,176.214,0,0,0,142.73-142.729,8,8,0,1,1,15.759,2.764A192.259,192.259,0,0,1,289.382,445.107,8.051,8.051,0,0,1,287.99,445.229Z" data-original="#000000" class=""/><circle cx="72" cy="256" r="8" data-original="#000000" class=""/><circle cx="256" cy="72" r="8" data-original="#000000" class=""/><circle cx="440" cy="256" r="8" data-original="#000000" class=""/><circle cx="256" cy="440" r="8" data-original="#000000" class=""/><path d="M256,496A240,240,0,0,1,86.294,86.294,240,240,0,1,1,425.705,425.706,238.426,238.426,0,0,1,256,496Zm0-464A224,224,0,0,0,97.608,414.392,224,224,0,0,0,414.392,97.608,222.535,222.535,0,0,0,256,32Z" data-original="#000000" class=""/><path d="M264.955,280l48.8,61A8,8,0,0,0,328,336V280h32a8,8,0,0,0,0-16H328V248h32a8,8,0,0,0,0-16H328V176a8,8,0,0,0-16,0v56H247.045l-48.8-61A8,8,0,0,0,184,176v56H152a8,8,0,0,0,0,16h32v16H152a8,8,0,0,0,0,16h32v56a8,8,0,0,0,16,0V280ZM312,313.194,285.445,280H312ZM312,248v16H272.645l-12.8-16ZM200,198.806,226.555,232H200ZM200,248h39.355l12.8,16H200Z" data-original="#000000" class=""/></g> </svg>
